<svg width="14" height="14" viewBox="0 0 14 14" fill="none" xmlns="http://www.w3.org/2000/svg">
<path d="M12.157 1.85782H10.2633V0.481043C10.2633 0.21564 10.0435 0 9.77295 0C9.50242 0 9.28261 0.21564 9.28261 0.481043V1.85782H4.71739V0.481043C4.71739 0.21564 4.49758 0 4.22705 0C3.95652 0 3.73671 0.21564 3.73671 0.481043V1.85782H1.843C0.828502 1.85782 0 2.67062 0 3.66588V12.1919C0 13.1872 0.828502 14 1.843 14H12.157C13.1715 14 14 13.1872 14 12.1919V3.66588C14 2.67062 13.1715 1.85782 12.157 1.85782ZM1.843 2.81991H3.73671V3.48341C3.73671 3.74882 3.95652 3.96445 4.22705 3.96445C4.49758 3.96445 4.71739 3.74882 4.71739 3.48341V2.81991H9.2657V3.48341C9.2657 3.74882 9.48551 3.96445 9.75604 3.96445C10.0266 3.96445 10.2464 3.74882 10.2464 3.48341V2.81991H12.1401C12.6135 2.81991 13.0024 3.20142 13.0024 3.66588V5.27488H0.980676V3.66588C0.980676 3.20142 1.36957 2.81991 1.843 2.81991ZM12.157 13.0379H1.843C1.36957 13.0379 0.980676 12.6564 0.980676 12.1919V6.25355H13.0193V12.1919C13.0193 12.6564 12.6304 13.0379 12.157 13.0379Z" fill="#314363"/>
</svg>
