<svg width="19" height="18" viewBox="0 0 19 18" fill="none" xmlns="http://www.w3.org/2000/svg">
<path d="M18.0363 16.7893L18.0893 16.8423L18.0363 16.8954L17.0939 17.8377L17.0409 17.8908L16.9879 17.8377L12.3631 13.213C11.1476 14.1985 9.59972 14.7897 7.91646 14.7897C4.01699 14.7897 0.844639 11.6174 0.844639 7.71789C0.844639 3.81842 4.01696 0.646069 7.91646 0.646069C11.8159 0.646069 14.9883 3.81842 14.9883 7.71789C14.9883 9.40115 14.3971 10.949 13.4115 12.1645L18.0363 16.7893ZM7.91646 13.307C10.9982 13.307 13.5056 10.7997 13.5056 7.71789C13.5056 4.63614 10.9982 2.1288 7.91646 2.1288C4.83471 2.1288 2.32737 4.63614 2.32737 7.71789C2.32737 10.7997 4.83471 13.307 7.91646 13.307Z" fill="#6F8BBC" stroke="#6F8BBC" stroke-width="0.15"/>
</svg>
